<mxfile host="app.diagrams.net" modified="2024-04-10T22:30:13.187Z" agent="Mozilla/5.0 (Linux; Android 10; K) AppleWebKit/537.36 (KHTML, like Gecko) Chrome/117.0.0.0 Safari/537.36" version="24.2.3" etag="P1T3UIv3ZIPaOHaYfxrw" type="github">
  <diagram name="PÃ¡gina-1" id="ljjcih2dgfJ8-bq5qt00">
    <mxGraphModel>
      <root>
        <mxCell id="0" />
        <mxCell id="1" parent="0" />
      </root>
    </mxGraphModel>
  </diagram>
</mxfile>
